<mxfile host="app.diagrams.net" modified="2023-04-20T08:42:36.781Z" agent="Mozilla/5.0 (Windows NT 10.0; Win64; x64) AppleWebKit/537.36 (KHTML, like Gecko) Chrome/112.0.0.0 Safari/537.36" etag="tXkWstiSYA_ozaxc-fGj" version="21.1.8" type="github">
  <diagram name="페이지-1" id="XRAYTFl4DLJTWomTeaKg">
    <mxGraphModel dx="1050" dy="577" grid="1" gridSize="10" guides="1" tooltips="1" connect="1" arrows="1" fold="1" page="1" pageScale="1" pageWidth="827" pageHeight="1169" math="0" shadow="0">
      <root>
        <mxCell id="0" />
        <mxCell id="1" parent="0" />
        <mxCell id="hACTfI5yImy1xf8UE229-1" value="SC&lt;br&gt;Mgr" style="rounded=0;whiteSpace=wrap;html=1;" vertex="1" parent="1">
          <mxGeometry x="244" y="250" width="160" height="80" as="geometry" />
        </mxCell>
        <mxCell id="hACTfI5yImy1xf8UE229-2" value="Dev2" style="rounded=0;whiteSpace=wrap;html=1;" vertex="1" parent="1">
          <mxGeometry x="344" y="370" width="120" height="60" as="geometry" />
        </mxCell>
        <mxCell id="hACTfI5yImy1xf8UE229-3" value="Dev 1" style="rounded=0;whiteSpace=wrap;html=1;" vertex="1" parent="1">
          <mxGeometry x="184" y="370" width="120" height="60" as="geometry" />
        </mxCell>
        <mxCell id="hACTfI5yImy1xf8UE229-4" value="485 TX" style="rounded=0;whiteSpace=wrap;html=1;" vertex="1" parent="1">
          <mxGeometry x="524" y="250" width="120" height="60" as="geometry" />
        </mxCell>
        <mxCell id="hACTfI5yImy1xf8UE229-5" value="485 RX" style="rounded=0;whiteSpace=wrap;html=1;" vertex="1" parent="1">
          <mxGeometry x="524" y="370" width="120" height="60" as="geometry" />
        </mxCell>
        <mxCell id="hACTfI5yImy1xf8UE229-6" value="Iot Central" style="rounded=0;whiteSpace=wrap;html=1;" vertex="1" parent="1">
          <mxGeometry x="244" y="90" width="160" height="80" as="geometry" />
        </mxCell>
      </root>
    </mxGraphModel>
  </diagram>
</mxfile>
